<svg width="16" height="16" viewBox="0 0 16 16" fill="none" xmlns="http://www.w3.org/2000/svg">
<g clip-path="url(#clip0_23221_4467)">
<mask id="mask0_23221_4467" style="mask-type:luminance" maskUnits="userSpaceOnUse" x="0" y="0" width="16" height="16">
<path d="M16 0H0V16H16V0Z" fill="white"/>
</mask>
<g mask="url(#mask0_23221_4467)">
<path d="M14.8533 4.60663L13.9267 4.81997C13.2667 4.9733 12.7467 5.48663 12.5933 6.1533L12.38 7.07994C12.36 7.17327 12.2133 7.17327 12.1933 7.07994L11.98 6.1533C11.8267 5.4933 11.3133 4.9733 10.6467 4.81997L9.71999 4.60663C9.62666 4.58663 9.62666 4.43997 9.71999 4.41997L10.6467 4.20663C11.3067 4.0533 11.8267 3.53997 11.98 2.8733L12.1933 1.94663C12.2133 1.8533 12.36 1.8533 12.38 1.94663L12.5933 2.8733C12.7467 3.5333 13.26 4.0533 13.9267 4.20663L14.8533 4.41997C14.9467 4.43997 14.9467 4.58663 14.8533 4.60663Z" stroke="#BFD7F9" stroke-miterlimit="10"/>
<path d="M9.63999 2.01337C8.67999 1.2667 7.32666 1.2667 6.36666 2.01337L2.36666 5.1267C1.72 5.63337 1.34 6.4067 1.34 7.2334V8.00027M14.6733 7.2334V12.0001C14.6733 13.4734 13.48 14.6667 12.0067 14.6667H4.00666C2.53333 14.6667 1.34 13.4734 1.34 12.0001V11.0003" stroke="#BFD7F9" stroke-linecap="round"/>
<path d="M8 10V12" stroke="#BFD7F9" stroke-linecap="round"/>
</g>
</g>
<defs>
<clipPath id="clip0_23221_4467">
<rect width="16" height="16" fill="white"/>
</clipPath>
</defs>
</svg>
