<svg width="16" height="16" viewBox="0 0 16 16" fill="none" xmlns="http://www.w3.org/2000/svg">
<g clip-path="url(#clip0_23221_4487)">
<mask id="mask0_23221_4487" style="mask-type:luminance" maskUnits="userSpaceOnUse" x="0" y="0" width="16" height="16">
<path d="M16 0H0V16H16V0Z" fill="white"/>
</mask>
<g mask="url(#mask0_23221_4487)">
<path d="M4.94002 13.0734L4.28002 13.2267C3.80669 13.3334 3.44002 13.7067 3.32669 14.1801L3.17336 14.8401C3.16002 14.9067 3.05336 14.9067 3.04002 14.8401L2.88669 14.1801C2.78002 13.7067 2.40669 13.3401 1.93336 13.2267L1.27336 13.0734C1.20669 13.0601 1.20669 12.9534 1.27336 12.9401L1.93336 12.7867C2.40669 12.6801 2.77336 12.3067 2.88669 11.8334L3.04002 11.1734C3.05336 11.1067 3.16002 11.1067 3.17336 11.1734L3.32669 11.8334C3.43336 12.3067 3.80669 12.6734 4.28002 12.7867L4.94002 12.9401C5.00669 12.9534 5.00669 13.0601 4.94002 13.0734Z" stroke="#BFD7F9" stroke-miterlimit="10"/>
<path d="M6.10668 7.24666C6.04001 7.24 5.96001 7.24 5.88668 7.24666C4.30001 7.19333 3.04001 5.89333 3.04001 4.29333C3.04001 2.69333 4.36001 1.33333 6.00001 1.33333C7.64001 1.33333 8.96001 2.65999 8.96001 4.29333C8.95334 5.89333 7.69334 7.19333 6.10668 7.24666Z" stroke="#BFD7F9" stroke-linecap="round" stroke-linejoin="round"/>
<path d="M10.94 2.66666C12.2333 2.66666 13.2733 3.71332 13.2733 4.99999C13.2733 6.28666 12.2733 7.28666 11.0267 7.33332C10.9733 7.32666 10.9133 7.32666 10.8533 7.33332" stroke="#BFD7F9" stroke-linecap="round" stroke-linejoin="round"/>
<path d="M6.00001 14.54C7.24667 14.56 8.5 14.2533 9.44667 13.62C11.06 12.54 11.06 10.78 9.44667 9.70666C8.50667 9.07999 7.24667 8.77332 6.00001 8.79332C5.33335 8.80666 4.67335 8.90666 4.06668 9.09999C3.81335 9.17999 3.57335 9.27332 3.34668 9.38666" stroke="#BFD7F9" stroke-linecap="round" stroke-linejoin="round"/>
<path d="M12.2267 13.3333C12.7067 13.2333 13.16 13.04 13.5334 12.7533C14.5734 11.9733 14.5734 10.6867 13.5334 9.90666C13.1667 9.62666 12.72 9.43999 12.2467 9.33333" stroke="#BFD7F9" stroke-linecap="round" stroke-linejoin="round"/>
</g>
</g>
<defs>
<clipPath id="clip0_23221_4487">
<rect width="16" height="16" fill="white"/>
</clipPath>
</defs>
</svg>
