<svg width="20" height="20" viewBox="0 0 20 20" fill="none" xmlns="http://www.w3.org/2000/svg">
<path d="M16 6.66665V13.3333C16 15.3333 15 16.6666 12.6667 16.6666H7.33333C5 16.6666 4 15.3333 4 13.3333V6.66665C4 4.66665 5 3.33331 7.33333 3.33331H12.6667C15 3.33331 16 4.66665 16 6.66665Z" stroke="#BFD7F9" stroke-miterlimit="10" stroke-linecap="round" stroke-linejoin="round"/>
<path d="M12.3334 3.33331V8.5733C12.3334 8.86664 11.9867 9.0133 11.7734 8.81997L10.2268 7.39333C10.1001 7.27333 9.90006 7.27333 9.7734 7.39333L8.22677 8.81997C8.01343 9.0133 7.66675 8.86664 7.66675 8.5733V3.33331H12.3334Z" stroke="#BFD7F9" stroke-miterlimit="10" stroke-linecap="round" stroke-linejoin="round"/>
<path d="M10.8333 11.3333H13.6666" stroke="#BFD7F9" stroke-miterlimit="10" stroke-linecap="round" stroke-linejoin="round"/>
<path d="M8 14H13.6667" stroke="#BFD7F9" stroke-miterlimit="10" stroke-linecap="round" stroke-linejoin="round"/>
</svg>
