<svg width="16" height="16" viewBox="0 0 16 16" fill="none" xmlns="http://www.w3.org/2000/svg">
<g clip-path="url(#clip0_23221_4433)">
<mask id="mask0_23221_4433" style="mask-type:luminance" maskUnits="userSpaceOnUse" x="0" y="0" width="16" height="16">
<path d="M16 0H0V16H16V0Z" fill="white"/>
</mask>
<g mask="url(#mask0_23221_4433)">
<path d="M7.66666 14C11.1667 14 14 11.1667 14 7.66666C14 4.16666 11.1667 1.33333 7.66666 1.33333C4.16666 1.33333 1.33333 4.16666 1.33333 7.66666C1.33333 11.1667 4.16666 14 7.66666 14Z" stroke="#BFD7F9" stroke-linecap="round" stroke-linejoin="round"/>
<path d="M14.6667 14.6667L13.3333 13.3333" stroke="#BFD7F9" stroke-linecap="round" stroke-linejoin="round"/>
<path d="M5.49334 7.75992C5.24001 6.96659 5.54001 5.97329 6.37334 5.70662C6.81334 5.55995 7.35334 5.68662 7.66667 6.11329C7.95334 5.67329 8.52 5.57329 8.95334 5.70662C9.79334 5.97329 10.0867 6.96659 9.83334 7.75992C9.43334 9.02659 8.04667 9.67992 7.66667 9.67992C7.28667 9.67992 5.90001 9.03992 5.49334 7.75992Z" stroke="#BFD7F9" stroke-linecap="round" stroke-linejoin="round"/>
</g>
</g>
<defs>
<clipPath id="clip0_23221_4433">
<rect width="16" height="16" fill="white"/>
</clipPath>
</defs>
</svg>
