<svg width="16" height="16" viewBox="0 0 16 16" fill="none" xmlns="http://www.w3.org/2000/svg">
<mask id="mask0_23221_4450" style="mask-type:luminance" maskUnits="userSpaceOnUse" x="0" y="0" width="16" height="16">
<path d="M16 0H0V16H16V0Z" fill="white"/>
</mask>
<g mask="url(#mask0_23221_4450)">
<path d="M8 10C9.1046 10 10 9.1046 10 8C10 6.8954 9.1046 6 8 6C6.8954 6 6 6.8954 6 8C6 9.1046 6.8954 10 8 10Z" stroke="#BFD7F9" stroke-miterlimit="10" stroke-linecap="round" stroke-linejoin="round"/>
<path d="M1.33333 8.58627V7.41293C1.33333 6.7196 1.9 6.1463 2.6 6.1463C3.80666 6.1463 4.29999 5.29297 3.69333 4.2463C3.34666 3.6463 3.55333 2.8663 4.15999 2.51963L5.31333 1.85963C5.83999 1.5463 6.52 1.73297 6.83333 2.25963L6.90666 2.3863C7.50666 3.43297 8.49333 3.43297 9.09999 2.3863L9.17333 2.25963C9.48666 1.73297 10.1667 1.5463 10.6933 1.85963L11.8467 2.51963C12.4533 2.8663 12.66 3.6463 12.3133 4.2463C11.7067 5.29297 12.2 6.1463 13.4067 6.1463C14.1 6.1463 14.6733 6.71293 14.6733 7.41293V8.58627C14.6733 9.2796 14.1067 9.85293 13.4067 9.85293C12.2 9.85293 11.7067 10.7063 12.3133 11.7529C12.66 12.3596 12.4533 13.1329 11.8467 13.4796L10.6933 14.1396C10.1667 14.4529 9.48666 14.2663 9.17333 13.7396L9.09999 13.6129C8.49999 12.5663 7.51333 12.5663 6.90666 13.6129L6.83333 13.7396C6.52 14.2663 5.83999 14.4529 5.31333 14.1396L4.15999 13.4796C3.55333 13.1329 3.34666 12.3529 3.69333 11.7529C4.29999 10.7063 3.80666 9.85293 2.6 9.85293C1.9 9.85293 1.33333 9.2796 1.33333 8.58627Z" stroke="#BFD7F9" stroke-miterlimit="10" stroke-linecap="round" stroke-linejoin="round"/>
</g>
</svg>
